<mxfile host="Electron" agent="Mozilla/5.0 (Windows NT 10.0; Win64; x64) AppleWebKit/537.36 (KHTML, like Gecko) draw.io/25.0.1 Chrome/128.0.6613.186 Electron/32.2.6 Safari/537.36" version="25.0.1">
  <diagram name="Page-1" id="dSvuV1CNV-9eOFvfghRx">
    <mxGraphModel dx="1562" dy="-143" grid="1" gridSize="10" guides="1" tooltips="1" connect="1" arrows="1" fold="1" page="1" pageScale="1" pageWidth="850" pageHeight="1100" math="0" shadow="0">
      <root>
        <mxCell id="0" />
        <mxCell id="1" parent="0" />
        <mxCell id="VqtLqSN2PKeOcX4HlBF0-1" value="" style="rounded=0;whiteSpace=wrap;html=1;movable=1;resizable=1;rotatable=1;deletable=1;editable=1;locked=0;connectable=1;" parent="1" vertex="1">
          <mxGeometry x="20" y="1123" width="1110" height="467" as="geometry" />
        </mxCell>
        <mxCell id="YVLUfFIhRKJOg-uTzJRr-610" value="&lt;b&gt;&lt;font face=&quot;Comic Sans MS&quot;&gt;&amp;nbsp;&lt;u&gt;&lt;font style=&quot;font-size: 15px;&quot;&gt;Module 8: Java Database Connectivity (JDBC)&lt;/font&gt;&lt;/u&gt;&lt;/font&gt;&lt;/b&gt;&lt;div&gt;&lt;font face=&quot;Comic Sans MS&quot;&gt;&lt;b&gt;&amp;nbsp;Author: Tristan Sim&lt;/b&gt;&lt;/font&gt;&lt;/div&gt;" style="rounded=0;whiteSpace=wrap;html=1;fillColor=#E6E6E6;fontColor=#000000;strokeColor=#000000;align=left;" parent="1" vertex="1">
          <mxGeometry x="34" y="1138" width="395" height="49.75" as="geometry" />
        </mxCell>
        <mxCell id="YVLUfFIhRKJOg-uTzJRr-615" value="" style="dashed=0;outlineConnect=0;html=1;align=center;labelPosition=center;verticalLabelPosition=bottom;verticalAlign=top;shape=mxgraph.weblogos.java" parent="1" vertex="1">
          <mxGeometry x="392" y="1142.25" width="23.71" height="41.25" as="geometry" />
        </mxCell>
        <mxCell id="sqyHCtOkdObhh9j7qGfr-1" value="&lt;b style=&quot;color: rgb(0, 0, 0); font-family: &amp;quot;Comic Sans MS&amp;quot;; text-align: left;&quot;&gt;Application&lt;/b&gt;&lt;div&gt;&lt;b style=&quot;color: rgb(0, 0, 0); font-family: &amp;quot;Comic Sans MS&amp;quot;; text-align: left;&quot;&gt;&amp;nbsp;(Java Program)&lt;/b&gt;&lt;/div&gt;" style="rounded=1;whiteSpace=wrap;html=1;arcSize=12;fillColor=#FFFF00;strokeColor=#000000;" parent="1" vertex="1">
          <mxGeometry x="140" y="1208" width="180" height="40" as="geometry" />
        </mxCell>
        <mxCell id="sqyHCtOkdObhh9j7qGfr-2" value="" style="rounded=1;whiteSpace=wrap;html=1;arcSize=3;fillColor=#E5CCFF;strokeColor=#000000;dashed=1;" parent="1" vertex="1">
          <mxGeometry x="41.5" y="1261" width="380" height="246" as="geometry" />
        </mxCell>
        <mxCell id="sqyHCtOkdObhh9j7qGfr-3" value="&lt;div style=&quot;&quot;&gt;&lt;span style=&quot;background-color: initial;&quot;&gt;&lt;font face=&quot;Comic Sans MS&quot; color=&quot;#000000&quot;&gt;&lt;b&gt;JBDC API&lt;/b&gt;&lt;/font&gt;&lt;/span&gt;&lt;/div&gt;&lt;div style=&quot;&quot;&gt;&lt;span style=&quot;background-color: initial;&quot;&gt;&lt;font face=&quot;Comic Sans MS&quot; color=&quot;#000000&quot;&gt;&lt;b&gt;(Interface that allows Java Programs to Interact with SQL)&lt;/b&gt;&lt;/font&gt;&lt;/span&gt;&lt;/div&gt;" style="rounded=1;whiteSpace=wrap;html=1;arcSize=10;fillColor=#00FFFF;strokeColor=#000000;align=center;" parent="1" vertex="1">
          <mxGeometry x="100" y="1279" width="260" height="55" as="geometry" />
        </mxCell>
        <mxCell id="sqyHCtOkdObhh9j7qGfr-6" value="&lt;div style=&quot;&quot;&gt;&lt;font face=&quot;Comic Sans MS&quot; color=&quot;#000000&quot;&gt;&lt;b&gt;Driver Manager&amp;nbsp;&lt;/b&gt;&lt;/font&gt;&lt;/div&gt;&lt;div style=&quot;&quot;&gt;&lt;font face=&quot;Comic Sans MS&quot; color=&quot;#000000&quot;&gt;&lt;b&gt;(Allows Database Specific Drivers to Connect to Applications of the Databse)&lt;/b&gt;&lt;/font&gt;&lt;/div&gt;" style="rounded=1;whiteSpace=wrap;html=1;arcSize=10;fillColor=#CC99FF;strokeColor=#000000;align=center;" parent="1" vertex="1">
          <mxGeometry x="100" y="1356" width="260" height="55" as="geometry" />
        </mxCell>
        <mxCell id="sqyHCtOkdObhh9j7qGfr-8" value="&lt;font face=&quot;Comic Sans MS&quot; color=&quot;#000000&quot;&gt;&lt;b&gt;MS&lt;/b&gt;&lt;/font&gt;&lt;div&gt;&lt;font face=&quot;Comic Sans MS&quot; color=&quot;#000000&quot;&gt;&lt;b&gt;SQL&lt;/b&gt;&lt;/font&gt;&lt;/div&gt;" style="shape=cylinder3;whiteSpace=wrap;html=1;boundedLbl=1;backgroundOutline=1;size=6.142822265625;fillColor=#FF8000;strokeColor=#000000;" parent="1" vertex="1">
          <mxGeometry x="90" y="1522" width="60" height="50" as="geometry" />
        </mxCell>
        <mxCell id="sqyHCtOkdObhh9j7qGfr-9" value="&lt;font face=&quot;Comic Sans MS&quot; color=&quot;#000000&quot;&gt;&lt;b&gt;Oracle&lt;/b&gt;&lt;/font&gt;&lt;div&gt;&lt;font face=&quot;Comic Sans MS&quot; color=&quot;#000000&quot;&gt;&lt;b&gt;SQL&lt;/b&gt;&lt;/font&gt;&lt;/div&gt;" style="shape=cylinder3;whiteSpace=wrap;html=1;boundedLbl=1;backgroundOutline=1;size=6.142822265625;fillColor=#FF8000;strokeColor=#000000;" parent="1" vertex="1">
          <mxGeometry x="200" y="1522" width="60" height="50" as="geometry" />
        </mxCell>
        <mxCell id="sqyHCtOkdObhh9j7qGfr-10" value="&lt;font face=&quot;Comic Sans MS&quot; color=&quot;#000000&quot;&gt;&lt;b&gt;MySQL&lt;/b&gt;&lt;/font&gt;" style="shape=cylinder3;whiteSpace=wrap;html=1;boundedLbl=1;backgroundOutline=1;size=6.142822265625;fillColor=#FF8000;strokeColor=#000000;" parent="1" vertex="1">
          <mxGeometry x="310" y="1522" width="60" height="50" as="geometry" />
        </mxCell>
        <mxCell id="sqyHCtOkdObhh9j7qGfr-11" value="&lt;div style=&quot;&quot;&gt;&lt;font face=&quot;Comic Sans MS&quot; color=&quot;#000000&quot;&gt;&lt;b&gt;MS SQL Driver&lt;/b&gt;&lt;/font&gt;&lt;/div&gt;" style="rounded=1;whiteSpace=wrap;html=1;arcSize=10;fillColor=#CCFF99;strokeColor=#000000;align=center;" parent="1" vertex="1">
          <mxGeometry x="90" y="1441" width="60" height="55" as="geometry" />
        </mxCell>
        <mxCell id="sqyHCtOkdObhh9j7qGfr-12" value="&lt;div style=&quot;&quot;&gt;&lt;font face=&quot;Comic Sans MS&quot; color=&quot;#000000&quot;&gt;&lt;b&gt;Oracle&lt;/b&gt;&lt;/font&gt;&lt;div&gt;&lt;font face=&quot;Comic Sans MS&quot; color=&quot;#000000&quot;&gt;&lt;b&gt;SQL&lt;/b&gt;&lt;/font&gt;&lt;/div&gt;&lt;div&gt;&lt;font face=&quot;Comic Sans MS&quot; color=&quot;#000000&quot;&gt;&lt;b&gt;Driver&lt;/b&gt;&lt;/font&gt;&lt;/div&gt;&lt;/div&gt;" style="rounded=1;whiteSpace=wrap;html=1;arcSize=10;fillColor=#CCFF99;strokeColor=#000000;align=center;" parent="1" vertex="1">
          <mxGeometry x="200" y="1441" width="60" height="55" as="geometry" />
        </mxCell>
        <mxCell id="sqyHCtOkdObhh9j7qGfr-13" value="&lt;div style=&quot;&quot;&gt;&lt;font face=&quot;Comic Sans MS&quot; color=&quot;#000000&quot;&gt;&lt;b&gt;MySQL&lt;/b&gt;&lt;/font&gt;&lt;/div&gt;&lt;div style=&quot;&quot;&gt;&lt;font face=&quot;Comic Sans MS&quot; color=&quot;#000000&quot;&gt;&lt;b&gt;Driver&lt;/b&gt;&lt;/font&gt;&lt;/div&gt;" style="rounded=1;whiteSpace=wrap;html=1;arcSize=10;fillColor=#CCFF99;strokeColor=#000000;align=center;" parent="1" vertex="1">
          <mxGeometry x="310" y="1441" width="60" height="55" as="geometry" />
        </mxCell>
        <mxCell id="sqyHCtOkdObhh9j7qGfr-14" value="" style="endArrow=none;startArrow=classic;html=1;rounded=0;strokeColor=#000000;entryX=0.5;entryY=1;entryDx=0;entryDy=0;exitX=0.5;exitY=0;exitDx=0;exitDy=0;strokeWidth=2;endFill=0;" parent="1" source="sqyHCtOkdObhh9j7qGfr-3" target="sqyHCtOkdObhh9j7qGfr-1" edge="1">
          <mxGeometry width="50" height="50" relative="1" as="geometry">
            <mxPoint x="250" y="1450" as="sourcePoint" />
            <mxPoint x="300" y="1400" as="targetPoint" />
          </mxGeometry>
        </mxCell>
        <mxCell id="sqyHCtOkdObhh9j7qGfr-15" value="" style="endArrow=none;startArrow=classic;html=1;rounded=0;strokeColor=#000000;entryX=0.5;entryY=1;entryDx=0;entryDy=0;exitX=0.5;exitY=0;exitDx=0;exitDy=0;strokeWidth=2;endFill=0;" parent="1" source="sqyHCtOkdObhh9j7qGfr-6" target="sqyHCtOkdObhh9j7qGfr-3" edge="1">
          <mxGeometry width="50" height="50" relative="1" as="geometry">
            <mxPoint x="240" y="1281" as="sourcePoint" />
            <mxPoint x="230" y="1326" as="targetPoint" />
          </mxGeometry>
        </mxCell>
        <mxCell id="sqyHCtOkdObhh9j7qGfr-17" value="" style="endArrow=none;startArrow=classic;html=1;rounded=0;strokeColor=#000000;entryX=0.25;entryY=1;entryDx=0;entryDy=0;exitX=0.5;exitY=0;exitDx=0;exitDy=0;strokeWidth=2;endFill=0;" parent="1" source="sqyHCtOkdObhh9j7qGfr-11" target="sqyHCtOkdObhh9j7qGfr-6" edge="1">
          <mxGeometry width="50" height="50" relative="1" as="geometry">
            <mxPoint x="240" y="1366" as="sourcePoint" />
            <mxPoint x="240" y="1336" as="targetPoint" />
          </mxGeometry>
        </mxCell>
        <mxCell id="sqyHCtOkdObhh9j7qGfr-18" value="" style="endArrow=none;startArrow=classic;html=1;rounded=0;strokeColor=#000000;entryX=0.508;entryY=0.985;entryDx=0;entryDy=0;exitX=0.541;exitY=0.013;exitDx=0;exitDy=0;strokeWidth=2;entryPerimeter=0;exitPerimeter=0;endFill=0;" parent="1" source="sqyHCtOkdObhh9j7qGfr-12" target="sqyHCtOkdObhh9j7qGfr-6" edge="1">
          <mxGeometry width="50" height="50" relative="1" as="geometry">
            <mxPoint x="130" y="1451" as="sourcePoint" />
            <mxPoint x="175" y="1421" as="targetPoint" />
          </mxGeometry>
        </mxCell>
        <mxCell id="sqyHCtOkdObhh9j7qGfr-19" value="" style="endArrow=none;startArrow=classic;html=1;rounded=0;strokeColor=#000000;entryX=0.75;entryY=1;entryDx=0;entryDy=0;exitX=0.5;exitY=0;exitDx=0;exitDy=0;strokeWidth=2;endFill=0;" parent="1" source="sqyHCtOkdObhh9j7qGfr-13" target="sqyHCtOkdObhh9j7qGfr-6" edge="1">
          <mxGeometry width="50" height="50" relative="1" as="geometry">
            <mxPoint x="242" y="1452" as="sourcePoint" />
            <mxPoint x="242" y="1420" as="targetPoint" />
          </mxGeometry>
        </mxCell>
        <mxCell id="sqyHCtOkdObhh9j7qGfr-22" value="" style="endArrow=none;startArrow=classic;html=1;rounded=0;strokeColor=#000000;entryX=0.5;entryY=1;entryDx=0;entryDy=0;exitX=0.5;exitY=0;exitDx=0;exitDy=0;strokeWidth=2;endFill=0;exitPerimeter=0;" parent="1" source="sqyHCtOkdObhh9j7qGfr-8" target="sqyHCtOkdObhh9j7qGfr-11" edge="1">
          <mxGeometry width="50" height="50" relative="1" as="geometry">
            <mxPoint x="130" y="1451" as="sourcePoint" />
            <mxPoint x="175" y="1421" as="targetPoint" />
          </mxGeometry>
        </mxCell>
        <mxCell id="sqyHCtOkdObhh9j7qGfr-23" value="" style="endArrow=none;startArrow=classic;html=1;rounded=0;strokeColor=#000000;entryX=0.5;entryY=1;entryDx=0;entryDy=0;exitX=0.5;exitY=0;exitDx=0;exitDy=0;strokeWidth=2;endFill=0;exitPerimeter=0;" parent="1" source="sqyHCtOkdObhh9j7qGfr-9" target="sqyHCtOkdObhh9j7qGfr-12" edge="1">
          <mxGeometry width="50" height="50" relative="1" as="geometry">
            <mxPoint x="130" y="1551" as="sourcePoint" />
            <mxPoint x="130" y="1506" as="targetPoint" />
          </mxGeometry>
        </mxCell>
        <mxCell id="sqyHCtOkdObhh9j7qGfr-24" value="" style="endArrow=none;startArrow=classic;html=1;rounded=0;strokeColor=#000000;entryX=0.5;entryY=1;entryDx=0;entryDy=0;strokeWidth=2;endFill=0;" parent="1" source="sqyHCtOkdObhh9j7qGfr-10" target="sqyHCtOkdObhh9j7qGfr-13" edge="1">
          <mxGeometry width="50" height="50" relative="1" as="geometry">
            <mxPoint x="240" y="1551" as="sourcePoint" />
            <mxPoint x="240" y="1506" as="targetPoint" />
          </mxGeometry>
        </mxCell>
        <mxCell id="sqyHCtOkdObhh9j7qGfr-26" value="w" style="rounded=0;whiteSpace=wrap;html=1;fillColor=#003366;fontColor=#FFFFFF;strokeColor=none;align=center;spacing=12;fontSize=15;" parent="1" vertex="1">
          <mxGeometry x="443" y="1207.9999999999995" width="135" height="32.5" as="geometry" />
        </mxCell>
        <mxCell id="sqyHCtOkdObhh9j7qGfr-27" value="&lt;font face=&quot;Comic Sans MS&quot;&gt;&lt;b&gt;Description&lt;/b&gt;&lt;/font&gt;" style="rounded=0;whiteSpace=wrap;html=1;fillColor=#003366;fontColor=#FFFFFF;strokeColor=none;align=center;spacing=12;fontSize=15;" parent="1" vertex="1">
          <mxGeometry x="585" y="1208.3399999999997" width="520" height="32.5" as="geometry" />
        </mxCell>
        <mxCell id="sqyHCtOkdObhh9j7qGfr-28" value="&lt;font face=&quot;Comic Sans MS&quot;&gt;&lt;b&gt;Driver Manager&lt;/b&gt;&lt;/font&gt;" style="rounded=0;whiteSpace=wrap;html=1;fillColor=#99FFFF;fontColor=#000000;strokeColor=none;align=center;spacing=12;fontSize=12;" parent="1" vertex="1">
          <mxGeometry x="443" y="1244.3899999999999" width="135" height="30" as="geometry" />
        </mxCell>
        <mxCell id="sqyHCtOkdObhh9j7qGfr-29" value="&lt;font face=&quot;Comic Sans MS&quot;&gt;&lt;b&gt;Manages the JDBC Drivers and Establish Database Connections&lt;/b&gt;&lt;/font&gt;" style="rounded=0;whiteSpace=wrap;html=1;fillColor=#99FFFF;fontColor=#000000;strokeColor=none;align=center;spacing=12;fontSize=12;" parent="1" vertex="1">
          <mxGeometry x="585" y="1244.3899999999999" width="520" height="30" as="geometry" />
        </mxCell>
        <mxCell id="sqyHCtOkdObhh9j7qGfr-30" value="&lt;font face=&quot;Comic Sans MS&quot;&gt;&lt;b&gt;Connection&lt;/b&gt;&lt;/font&gt;" style="rounded=0;whiteSpace=wrap;html=1;fillColor=#99FFFF;fontColor=#000000;strokeColor=none;align=center;spacing=12;fontSize=12;" parent="1" vertex="1">
          <mxGeometry x="443" y="1278.6" width="135" height="30" as="geometry" />
        </mxCell>
        <mxCell id="sqyHCtOkdObhh9j7qGfr-31" value="&lt;font face=&quot;Comic Sans MS&quot;&gt;&lt;b&gt;Represents a Session with a Specific Database&lt;/b&gt;&lt;/font&gt;" style="rounded=0;whiteSpace=wrap;html=1;fillColor=#99FFFF;fontColor=#000000;strokeColor=none;align=center;spacing=12;fontSize=12;" parent="1" vertex="1">
          <mxGeometry x="585" y="1278.6" width="520" height="30" as="geometry" />
        </mxCell>
        <mxCell id="sqyHCtOkdObhh9j7qGfr-32" value="&lt;font face=&quot;Comic Sans MS&quot;&gt;&lt;b&gt;Statement&lt;/b&gt;&lt;/font&gt;" style="rounded=0;whiteSpace=wrap;html=1;fillColor=#99FFFF;fontColor=#000000;strokeColor=none;align=center;spacing=12;fontSize=12;" parent="1" vertex="1">
          <mxGeometry x="443" y="1312.63" width="135" height="30" as="geometry" />
        </mxCell>
        <mxCell id="sqyHCtOkdObhh9j7qGfr-33" value="&lt;font face=&quot;Comic Sans MS&quot;&gt;&lt;b&gt;Used to Execute Static SQL Queries&lt;/b&gt;&lt;/font&gt;" style="rounded=0;whiteSpace=wrap;html=1;fillColor=#99FFFF;fontColor=#000000;strokeColor=none;align=center;spacing=12;fontSize=12;" parent="1" vertex="1">
          <mxGeometry x="585" y="1312.63" width="520" height="30" as="geometry" />
        </mxCell>
        <mxCell id="sqyHCtOkdObhh9j7qGfr-34" value="&lt;font face=&quot;Comic Sans MS&quot;&gt;&lt;b&gt;PreparedStatements&lt;/b&gt;&lt;/font&gt;" style="rounded=0;whiteSpace=wrap;html=1;fillColor=#99FFFF;fontColor=#000000;strokeColor=none;align=center;spacing=12;fontSize=12;" parent="1" vertex="1">
          <mxGeometry x="443" y="1346.7599999999998" width="135" height="30" as="geometry" />
        </mxCell>
        <mxCell id="sqyHCtOkdObhh9j7qGfr-35" value="&lt;font face=&quot;Comic Sans MS&quot;&gt;&lt;b&gt;Precompiled SQL Statement, used for Dynamic Queries with Paraemeters.&lt;/b&gt;&lt;/font&gt;" style="rounded=0;whiteSpace=wrap;html=1;fillColor=#99FFFF;fontColor=#000000;strokeColor=none;align=center;spacing=12;fontSize=12;" parent="1" vertex="1">
          <mxGeometry x="585" y="1346.7599999999998" width="520" height="30" as="geometry" />
        </mxCell>
        <mxCell id="sqyHCtOkdObhh9j7qGfr-46" value="&lt;font face=&quot;Comic Sans MS&quot;&gt;&lt;b&gt;CallableStatement&lt;/b&gt;&lt;/font&gt;" style="rounded=0;whiteSpace=wrap;html=1;fillColor=#99FFFF;fontColor=#000000;strokeColor=none;align=center;spacing=12;fontSize=12;" parent="1" vertex="1">
          <mxGeometry x="443" y="1380.76" width="135" height="30" as="geometry" />
        </mxCell>
        <mxCell id="sqyHCtOkdObhh9j7qGfr-47" value="&lt;font face=&quot;Comic Sans MS&quot;&gt;&lt;b&gt;Used to Execute stored Procedures in the Database&lt;/b&gt;&lt;/font&gt;" style="rounded=0;whiteSpace=wrap;html=1;fillColor=#99FFFF;fontColor=#000000;strokeColor=none;align=center;spacing=12;fontSize=12;" parent="1" vertex="1">
          <mxGeometry x="585" y="1380.76" width="520" height="30" as="geometry" />
        </mxCell>
        <mxCell id="sqyHCtOkdObhh9j7qGfr-48" value="&lt;font face=&quot;Comic Sans MS&quot;&gt;&lt;b&gt;ResultSet&lt;/b&gt;&lt;/font&gt;" style="rounded=0;whiteSpace=wrap;html=1;fillColor=#99FFFF;fontColor=#000000;strokeColor=none;align=center;spacing=12;fontSize=12;" parent="1" vertex="1">
          <mxGeometry x="443" y="1414.7900000000002" width="135" height="30" as="geometry" />
        </mxCell>
        <mxCell id="sqyHCtOkdObhh9j7qGfr-49" value="&lt;font face=&quot;Comic Sans MS&quot;&gt;&lt;b&gt;Represents the Results Set of a Query, allowing Navigation Through the Rows&lt;/b&gt;&lt;/font&gt;" style="rounded=0;whiteSpace=wrap;html=1;fillColor=#99FFFF;fontColor=#000000;strokeColor=none;align=center;spacing=12;fontSize=12;" parent="1" vertex="1">
          <mxGeometry x="585" y="1414.7900000000002" width="520" height="30" as="geometry" />
        </mxCell>
        <mxCell id="sqyHCtOkdObhh9j7qGfr-50" value="&lt;font face=&quot;Comic Sans MS&quot;&gt;&lt;b&gt;SQLException&lt;/b&gt;&lt;/font&gt;" style="rounded=0;whiteSpace=wrap;html=1;fillColor=#99FFFF;fontColor=#000000;strokeColor=none;align=center;spacing=12;fontSize=12;" parent="1" vertex="1">
          <mxGeometry x="443" y="1448.9199999999998" width="135" height="30" as="geometry" />
        </mxCell>
        <mxCell id="sqyHCtOkdObhh9j7qGfr-51" value="&lt;font face=&quot;Comic Sans MS&quot;&gt;&lt;b&gt;Handles SQL-related Exceptions during Database Operations.&lt;/b&gt;&lt;/font&gt;" style="rounded=0;whiteSpace=wrap;html=1;fillColor=#99FFFF;fontColor=#000000;strokeColor=none;align=center;spacing=12;fontSize=12;" parent="1" vertex="1">
          <mxGeometry x="585" y="1448.9199999999998" width="520" height="30" as="geometry" />
        </mxCell>
      </root>
    </mxGraphModel>
  </diagram>
</mxfile>
